<svg width="28" height="28" viewBox="0 0 28 28" fill="none" xmlns="http://www.w3.org/2000/svg">
<g filter="url(#filter0_d)">
<path d="M20.6667 7.5H13.1667C12.2462 7.5 11.5 8.24619 11.5 9.16667V16.6667C11.5 17.5871 12.2462 18.3333 13.1667 18.3333H20.6667C21.5871 18.3333 22.3333 17.5871 22.3333 16.6667V9.16667C22.3333 8.24619 21.5871 7.5 20.6667 7.5Z" stroke="#3485FF" stroke-width="2" stroke-linecap="round" stroke-linejoin="round"/>
<path d="M8.16675 12.5H7.33341C6.89139 12.5 6.46746 12.3244 6.1549 12.0118C5.84234 11.6993 5.66675 11.2754 5.66675 10.8333V3.33332C5.66675 2.8913 5.84234 2.46737 6.1549 2.15481C6.46746 1.84225 6.89139 1.66666 7.33341 1.66666H14.8334C15.2754 1.66666 15.6994 1.84225 16.0119 2.15481C16.3245 2.46737 16.5001 2.8913 16.5001 3.33332V4.16666" stroke="#3485FF" stroke-width="2" stroke-linecap="round" stroke-linejoin="round"/>
</g>
<defs>
<filter id="filter0_d" x="0" y="0" width="28" height="28" filterUnits="userSpaceOnUse" color-interpolation-filters="sRGB">
<feFlood flood-opacity="0" result="BackgroundImageFix"/>
<feColorMatrix in="SourceAlpha" type="matrix" values="0 0 0 0 0 0 0 0 0 0 0 0 0 0 0 0 0 0 127 0"/>
<feOffset dy="4"/>
<feGaussianBlur stdDeviation="2"/>
<feColorMatrix type="matrix" values="0 0 0 0 0 0 0 0 0 0 0 0 0 0 0 0 0 0 0.25 0"/>
<feBlend mode="normal" in2="BackgroundImageFix" result="effect1_dropShadow"/>
<feBlend mode="normal" in="SourceGraphic" in2="effect1_dropShadow" result="shape"/>
</filter>
</defs>
</svg>
